<svg class="icon" viewBox="0 0 1028 1024" xmlns="http://www.w3.org/2000/svg" width="32.125" height="32"><defs><style/></defs><path d="M775.168 686.08c10.24-9.728 10.752-25.6 1.024-35.328-54.272-56.32-123.392-97.28-198.656-119.296 85.504-45.056 143.36-132.608 143.36-233.984 0-146.432-122.368-265.216-272.384-265.216-150.016 0-272.384 118.784-272.384 265.216 0 100.864 57.856 188.928 143.36 233.472C135.168 585.216 0 752.64 0 949.76c0 13.824 11.776 25.088 26.112 25.088s26.112-11.264 26.112-25.088c0-213.504 178.176-387.072 397.312-387.072 110.592 0 213.504 43.52 289.28 122.368 9.728 9.728 26.112 10.24 36.352 1.024zM228.864 297.472c0-118.272 98.816-215.04 220.672-215.04s220.672 96.256 220.672 215.04c0 118.272-98.816 215.04-220.672 215.04s-220.672-96.768-220.672-215.04zm770.048 488.96H869.888V657.408c0-13.824-14.336-25.088-26.112-25.088-11.264 0-26.112 11.264-26.112 25.088v129.024H688.64c-13.824 0-25.088 14.336-25.088 26.112 0 11.264 11.264 26.112 25.088 26.112h129.024V967.68c0 13.824 14.848 25.088 26.112 25.088 11.264 0 26.112-11.264 26.112-25.088V838.144h129.024c13.824 0 25.088-14.336 25.088-26.112 0-11.264-11.264-25.6-25.088-25.6zm0 0"/></svg>