<svg class="icon" viewBox="0 0 1024 1024" xmlns="http://www.w3.org/2000/svg" width="128" height="128"><defs><style/></defs><path d="M681.984 750.592h-555.52v71.68h555.52C696.832 865.28 737.28 896 785.408 896c60.416 0 109.568-48.64 109.568-109.568 0-60.416-48.64-109.568-109.568-109.568-48.128.512-88.576 31.232-103.424 73.728zm149.504 35.84c0 25.088-20.992 46.08-46.08 46.08s-46.08-20.992-46.08-46.08 20.992-46.08 46.08-46.08 46.08 20.992 46.08 46.08zM407.552 476.16H129.024v71.68h278.528c14.848 42.496 55.296 73.728 103.424 73.728 48.128 0 88.576-30.72 103.424-73.728h283.136v-71.68H614.4c-14.848-43.008-55.296-73.728-103.424-73.728s-88.576 30.72-103.424 73.728zM557.056 512c0 25.088-20.992 46.08-46.08 46.08s-46.08-20.992-46.08-46.08 20.992-46.08 46.08-46.08 46.08 20.48 46.08 46.08zM236.544 128c-60.416 0-109.568 48.64-109.568 109.568 0 59.904 48.64 109.568 109.568 109.568 48.128 0 88.576-30.72 103.424-73.728h555.52v-71.68h-555.52C325.12 158.72 284.672 128 236.544 128zm46.08 109.568c0 25.088-20.992 46.08-46.08 46.08s-46.08-20.992-46.08-46.08 20.992-46.08 46.08-46.08 46.08 20.48 46.08 46.08z"/></svg>