<?xml version="1.0" standalone="no"?><!DOCTYPE svg PUBLIC "-//W3C//DTD SVG 1.1//EN" "http://www.w3.org/Graphics/SVG/1.1/DTD/svg11.dtd"><svg t="1603419686439" class="icon" viewBox="0 0 1024 1024" version="1.1" xmlns="http://www.w3.org/2000/svg" p-id="3428" xmlns:xlink="http://www.w3.org/1999/xlink" width="32" height="32"><defs><style type="text/css"></style></defs><path d="M173.7 312.5c-11 0-20 9-20 20v15.1c0 11 9 20 20 20H852c11 0 20 9 20 20v369.1c0 11-9 20-20 20H323.6c-11 0-20 9-20 20v15.1c0 11 9 20 20 20H907c11 0 20-9 20-20V332.5c0-11-9-20-20-20H173.7z" fill="#409EFF" p-id="3429"></path><path d="M341.6 535c7.8-7.8 7.8-20.5 0-28.3L189 354.2c-7.8-7.8-7.8-20.5 0-28.3l152.6-152.6c7.8-7.8 7.8-20.5 0-28.3L331 134.4c-7.8-7.8-20.5-7.8-28.3 0L150.1 287c-7.8 7.8-14.1 14.1-14.2 14.1 0 0-6.4 6.4-14.2 14.1L111 325.9c-7.8 7.8-7.8 20.5 0 28.3l191.5 191.5c7.8 7.8 20.5 7.8 28.3 0l10.8-10.7z" fill="#409EFF" p-id="3430"></path></svg>