<?xml version="1.0" standalone="no"?><!DOCTYPE svg PUBLIC "-//W3C//DTD SVG 1.1//EN" "http://www.w3.org/Graphics/SVG/1.1/DTD/svg11.dtd"><svg t="1581235284400" class="icon" viewBox="0 0 1024 1024" version="1.1" xmlns="http://www.w3.org/2000/svg" p-id="2702" xmlns:xlink="http://www.w3.org/1999/xlink" width="200" height="200"><defs><style type="text/css"></style></defs><path d="M704 143.2v44c0 14.4-9.6 24-24 24s-24-9.6-24-24v-44h-309.6v44c0 14.4-9.6 24-24 24s-24-9.6-24-24v-44h-166.4c-40.8 0-72 32-72 73.6v84.8h906.4V216.8c0-41.6-31.2-73.6-72-73.6H704z m0-48h190.4c66.4 0 119.2 53.6 119.2 121.6v331.2c0 14.4-9.6 24-24 24s-24-9.6-24-24v-200.8h-906.4v524.8c0 41.6 31.2 73.6 72 73.6h763.2c40.8 0 72-32 72-73.6v-104.8c0-14.4 9.6-24 24-24s24 9.6 24 24v104.8c0 68-52.8 121.6-119.2 121.6h-763.2c-66.4 0-119.2-53.6-119.2-121.6v-657.6c0-68 52.8-121.6 119.2-121.6h166.4v-34.4c0-14.4 9.6-24 24-24s24 9.6 24 24v34.4h309.6v-34.4c0-14.4 9.6-24 24-24s24 9.6 24 24v36.8z" fill="" p-id="2703"></path></svg>