<?xml version="1.0" standalone="no"?><!DOCTYPE svg PUBLIC "-//W3C//DTD SVG 1.1//EN" "http://www.w3.org/Graphics/SVG/1.1/DTD/svg11.dtd"><svg t="1584164363312" class="icon" viewBox="0 0 1103 1024" version="1.1" xmlns="http://www.w3.org/2000/svg" p-id="2121" width="137.875" height="128" xmlns:xlink="http://www.w3.org/1999/xlink"><defs><style type="text/css"></style></defs><path d="M1041.433994 719.793231L559.681378 927.901538 61.465994 712.546462a43.795692 43.795692 0 0 0-57.895385 24.891076c-9.452308 23.630769 1.181538 50.491077 24.024616 60.49477l515.623384 222.601846c11.421538 4.804923 23.630769 4.411077 34.343385 0l497.821538-215.355077a47.261538 47.261538 0 0 0 24.103385-60.573539 43.559385 43.559385 0 0 0-57.974154-24.812307zM542.352148 0c5.907692 0 11.815385 1.102769 17.723077 3.150769l515.308307 198.498462a41.511385 41.511385 0 0 1 24.812308 24.182154c7.876923 20.716308-2.756923 43.559385-24.812308 52.14523L577.404455 469.464615a49.309538 49.309538 0 0 1-34.264615 0L27.437686 271.123692c-20.873846-8.192-31.980308-29.223385-25.678769-49.230769 0.393846-0.315077 0.393846-0.315077 0.393846-0.708923 3.150769-11.815385 12.603077-22.055385 25.678769-27.096615L524.550302 3.229538A51.830154 51.830154 0 0 1 542.352148 0z m2.599384 78.769231a39.384615 39.384615 0 0 0-12.681846 2.126769L177.414302 208.187077a28.514462 28.514462 0 0 0-18.274462 18.116923c0 0.157538 0 0.157538-0.315077 0.393846-4.489846 13.390769 3.387077 27.411692 18.274462 32.846769l368.403692 132.253539a37.572923 37.572923 0 0 0 24.418461 0l355.721847-127.763692c15.753846-5.671385 23.394462-20.873846 17.801846-34.658462a28.829538 28.829538 0 0 0-17.801846-16.226462L557.712148 80.896A39.384615 39.384615 0 0 0 544.951532 78.769231z" fill="#409EFF" p-id="2122"></path><path d="M1041.433994 483.485538L559.681378 691.593846 61.465994 476.238769a43.795692 43.795692 0 0 0-57.895385 24.891077c-9.452308 23.630769 1.181538 50.491077 24.024616 60.494769l515.623384 222.601847c11.421538 4.804923 23.630769 4.411077 34.343385 0l497.821538-215.355077a47.261538 47.261538 0 0 0 24.103385-60.573539 43.874462 43.874462 0 0 0-57.974154-24.812308z" fill="#409EFF" p-id="2123"></path></svg>