<svg class="icon" viewBox="0 0 1103 1024" xmlns="http://www.w3.org/2000/svg" width="137.875" height="128"><defs><style/></defs><path d="M1041.434 719.793L559.681 927.902 61.466 712.546a43.796 43.796 0 0 0-57.895 24.892c-9.453 23.63 1.181 50.49 24.024 60.494l515.624 222.602c11.421 4.805 23.63 4.411 34.343 0l497.822-215.355a47.262 47.262 0 0 0 24.103-60.573 43.56 43.56 0 0 0-57.974-24.813zM542.352 0c5.908 0 11.816 1.103 17.723 3.15l515.309 198.5a41.511 41.511 0 0 1 24.812 24.181c7.877 20.717-2.757 43.56-24.812 52.146l-497.98 191.488a49.31 49.31 0 0 1-34.264 0L27.438 271.124c-20.874-8.192-31.98-29.224-25.68-49.231.395-.315.395-.315.395-.709 3.15-11.815 12.603-22.055 25.679-27.097L524.55 3.23A51.83 51.83 0 0 1 542.352 0zm2.6 78.77a39.385 39.385 0 0 0-12.682 2.126L177.414 208.187a28.514 28.514 0 0 0-18.274 18.117c0 .158 0 .158-.315.394-4.49 13.39 3.387 27.412 18.274 32.847l368.404 132.253a37.573 37.573 0 0 0 24.418 0l355.722-127.764c15.754-5.67 23.395-20.873 17.802-34.658a28.83 28.83 0 0 0-17.802-16.226L557.713 80.896a39.385 39.385 0 0 0-12.761-2.127z" fill="#409EFF"/><path d="M1041.434 483.486L559.681 691.594 61.466 476.239a43.796 43.796 0 0 0-57.895 24.89c-9.453 23.632 1.181 50.492 24.024 60.496L543.22 784.226c11.421 4.805 23.63 4.412 34.343 0l497.822-215.355a47.262 47.262 0 0 0 24.103-60.573 43.874 43.874 0 0 0-57.974-24.812z" fill="#409EFF"/></svg>
