<?xml version="1.0" standalone="no"?><!DOCTYPE svg PUBLIC "-//W3C//DTD SVG 1.1//EN" "http://www.w3.org/Graphics/SVG/1.1/DTD/svg11.dtd"><svg t="1581145963542" class="icon" viewBox="0 0 1024 1024" version="1.1" xmlns="http://www.w3.org/2000/svg" p-id="7958" xmlns:xlink="http://www.w3.org/1999/xlink" width="200" height="200"><defs><style type="text/css"></style></defs><path d="M936.96 840.704h-785.066667c-18.773333 0-34.133333-15.36-34.133333-34.133333v-648.533334c0-9.386667-7.68-17.066667-17.066667-17.066666s-17.066667 7.68-17.066666 17.066666v648.533334c0 37.717333 30.549333 68.266667 68.266666 68.266666h785.066667c9.386667 0 17.066667-7.68 17.066667-17.066666s-7.68-17.066667-17.066667-17.066667z" p-id="7959"></path><path d="M239.786667 766.464h129.706666c11.264 0 20.48-9.216 20.48-20.48v-129.706667c0-11.264-9.216-20.48-20.48-20.48h-129.706666c-11.264 0-20.48 9.216-20.48 20.48v129.706667c0 11.264 9.216 20.48 20.48 20.48zM476.672 766.464h129.706667c11.264 0 20.48-9.216 20.48-20.48v-504.661333c0-11.264-9.216-20.48-20.48-20.48h-129.706667c-11.264 0-20.48 9.216-20.48 20.48v504.661333c0 11.264 9.216 20.48 20.48 20.48zM713.557333 766.464h129.706667c11.264 0 20.48-9.216 20.48-20.48V408.405333c0-11.264-9.216-20.48-20.48-20.48h-129.706667c-11.264 0-20.48 9.216-20.48 20.48v337.578667c0 11.264 9.216 20.48 20.48 20.48z" p-id="7960"></path></svg>