<svg class="icon" viewBox="0 0 1024 1024" xmlns="http://www.w3.org/2000/svg" width="200" height="200"><defs><style/></defs><path d="M936.96 840.704H151.893c-18.773 0-34.133-15.36-34.133-34.133V158.037c0-9.386-7.68-17.066-17.067-17.066s-17.066 7.68-17.066 17.066v648.534c0 37.717 30.549 68.266 68.266 68.266H936.96c9.387 0 17.067-7.68 17.067-17.066s-7.68-17.067-17.067-17.067z"/><path d="M239.787 766.464h129.706c11.264 0 20.48-9.216 20.48-20.48V616.277c0-11.264-9.216-20.48-20.48-20.48H239.787c-11.264 0-20.48 9.216-20.48 20.48v129.707c0 11.264 9.216 20.48 20.48 20.48zm236.885 0h129.707c11.264 0 20.48-9.216 20.48-20.48V241.323c0-11.264-9.216-20.48-20.48-20.48H476.672c-11.264 0-20.48 9.216-20.48 20.48v504.661c0 11.264 9.216 20.48 20.48 20.48zm236.885 0h129.707c11.264 0 20.48-9.216 20.48-20.48V408.405c0-11.264-9.216-20.48-20.48-20.48H713.557c-11.264 0-20.48 9.216-20.48 20.48v337.579c0 11.264 9.216 20.48 20.48 20.48z"/></svg>