<?xml version="1.0" standalone="no"?><!DOCTYPE svg PUBLIC "-//W3C//DTD SVG 1.1//EN" "http://www.w3.org/Graphics/SVG/1.1/DTD/svg11.dtd"><svg t="1582025831387" class="icon" viewBox="0 0 1024 1024" version="1.1" xmlns="http://www.w3.org/2000/svg" p-id="13008" xmlns:xlink="http://www.w3.org/1999/xlink" width="16" height="16"><defs><style type="text/css"></style></defs><path d="M933.248 940.992a26.752 26.752 0 0 1 0 53.568H90.752a26.752 26.752 0 0 1 0-53.568h842.496zM732.48 13.184a45.184 45.184 0 0 1 63.744 0l147.008 146.944a45.184 45.184 0 0 1 0 63.808l-601.216 601.28a19.264 19.264 0 0 1-7.296 3.008l-219.712 59.904a38.016 38.016 0 0 1-36.48-9.664 38.08 38.08 0 0 1-9.664-36.416l60.352-221.44a20.928 20.928 0 0 1 1.92-6.144zM169.472 664.512l-40.768 165.76 165.568-40.96-124.8-124.8z m444.8-453.312L209.536 616.128 344.32 750.656l404.992-404.608L614.336 211.2zM764.8 60.8L652.352 173.184 787.2 308.032l112.448-112.256L764.736 60.8z" p-id="13009"></path></svg>