<svg class="icon" viewBox="0 0 1024 1024" xmlns="http://www.w3.org/2000/svg" width="128" height="128"><defs><style/></defs><path d="M536.933 97.963V452.75c0 18.864 15.294 34.163 34.164 34.163h354.786c19.775 0 35.803-16.776 34.131-36.482C942.537 245.017 778.821 81.309 573.415 63.833c-19.705-1.678-36.482 14.355-36.482 34.13z"/><path d="M450.832 112.339C218.328 132.79 39.612 340.626 66.61 583.893c21.65 195.098 178.247 351.687 373.344 373.344C683.22 984.234 891.056 805.512 911.51 573.014c1.773-20.19-13.77-37.706-34.043-37.706H522.717c-18.878 0-34.185-15.3-34.185-34.178V146.378c-.001-20.27-17.51-35.815-37.7-34.04z"/></svg>