<?xml version="1.0" standalone="no"?><!DOCTYPE svg PUBLIC "-//W3C//DTD SVG 1.1//EN" "http://www.w3.org/Graphics/SVG/1.1/DTD/svg11.dtd"><svg t="1584968843556" class="icon" viewBox="0 0 1024 1024" version="1.1" xmlns="http://www.w3.org/2000/svg" p-id="618" width="16" height="16" xmlns:xlink="http://www.w3.org/1999/xlink"><defs><style type="text/css"></style></defs><path d="M554.667 896v106.667l-128-85.334-128 85.334V896h-21.334A149.333 149.333 0 0 1 128 746.667V213.333a128 128 0 0 1 128-128h597.333A42.667 42.667 0 0 1 896 128v725.333A42.667 42.667 0 0 1 853.333 896H554.667z m0-85.333h256v-128H277.333a64 64 0 0 0 0 128h21.334v-85.334h256v85.334z m256-213.334V170.667H256v428.16a150.613 150.613 0 0 1 21.333-1.494h533.334z m-512-384H384v85.334h-85.333v-85.334z m0 128H384v85.334h-85.333v-85.334z m0 128H384v85.334h-85.333v-85.334z" p-id="619"></path></svg>