<?xml version="1.0" standalone="no"?><!DOCTYPE svg PUBLIC "-//W3C//DTD SVG 1.1//EN" "http://www.w3.org/Graphics/SVG/1.1/DTD/svg11.dtd"><svg t="1581171115261" class="icon" viewBox="0 0 1024 1024" version="1.1" xmlns="http://www.w3.org/2000/svg" p-id="27274" xmlns:xlink="http://www.w3.org/1999/xlink" width="200" height="200"><defs><style type="text/css"></style></defs><path d="M934.4 566.7L554.2 728.9c-36.4 15-50.9 15-84.5 0L89.6 566.7C69.4 556.5 64 518.9 64 498.3c25.4 13.8 61.1 29.1 59.7 28.3L512 696.5l388.3-169.9c0.7-0.1 35.3-16.7 59.7-28.3 0 21.1-6.9 60.1-25.6 68.4z m0-169.9L554.2 559c-36.4 15-50.9 15-84.5 0L89.6 396.8c-29.9-15-28.9-62.4 0-80.1l380.1-190.5c33.6-15.9 54.6-16.8 84.5 0l380.1 190.5c29 15.1 28.1 67.7 0.1 80.1zM512 158.6L123.7 356.8 512 512l388.3-155.3L512 158.6z m0 707.8l388.3-169.9c0.7-0.1 35.3-16.7 59.7-28.3 0 21-6.9 60.1-25.6 68.4L554.2 898.8c-36.4 15-50.9 15-84.5 0L89.6 736.6C69.4 726.4 64 688.8 64 668.2c25.4 13.8 61.1 29.1 59.7 28.3L512 866.4z m0 0" fill="#666666" p-id="27275"></path></svg>