<svg class="icon" viewBox="0 0 1024 1024" xmlns="http://www.w3.org/2000/svg" width="16" height="16"><defs><style/></defs><path d="M500.622 694.044c-17.066 0-28.444-11.377-28.444-28.444v-22.756c0-22.755 0-39.822 11.378-56.888 0-17.067 17.066-28.445 39.822-39.823 17.066-17.066 34.133-28.444 45.51-34.133 11.379-11.378 22.756-17.067 28.445-28.444 11.378-11.378 17.067-28.445 17.067-51.2 0-11.378 0-22.756-5.689-34.134s-11.378-17.066-22.755-28.444c-22.756-17.067-45.512-28.445-79.645-28.445-28.444 0-51.2 11.378-68.267 34.134-17.066 17.066-22.755 39.822-28.444 68.266 0 17.067-17.067 28.445-34.133 28.445-22.756-5.69-34.134-17.067-34.134-34.134s5.69-34.133 11.378-45.51c11.378-22.756 22.756-39.823 34.133-56.89 17.067-17.066 34.134-28.444 51.2-34.133 22.756-11.378 45.512-17.067 73.956-17.067 51.2 0 91.022 11.378 125.156 39.823 28.444 28.444 45.51 68.266 45.51 108.089 0 17.066 0 28.444-5.688 45.51L659.91 512c-11.378 11.378-22.755 22.756-39.822 34.133-17.067 11.378-34.133 28.445-56.889 39.823l-22.756 22.755V665.6c0 17.067-17.066 28.444-39.822 28.444zm-28.444 68.267c0 17.067 11.378 34.133 34.133 34.133s34.133-17.066 34.133-34.133-17.066-34.133-34.133-34.133-34.133 17.066-34.133 34.133" fill="#3296FA"/><path d="M512 1024C227.556 1024 0 796.444 0 512S227.556 0 512 0s512 227.556 512 512-227.556 512-512 512zm0-967.111c-250.311 0-455.111 204.8-455.111 455.111S261.689 967.111 512 967.111 967.111 762.311 967.111 512 762.311 56.889 512 56.889z" fill="#3296FA"/></svg>