<?xml version="1.0" standalone="no"?><!DOCTYPE svg PUBLIC "-//W3C//DTD SVG 1.1//EN" "http://www.w3.org/Graphics/SVG/1.1/DTD/svg11.dtd"><svg t="1581646072557" class="icon" viewBox="0 0 1024 1024" version="1.1" xmlns="http://www.w3.org/2000/svg" p-id="2595" width="16" height="16" xmlns:xlink="http://www.w3.org/1999/xlink"><defs><style type="text/css"></style></defs><path d="M500.622222 694.044444c-17.066667 0-28.444444-11.377778-28.444444-28.444444v-22.755556c0-22.755556 0-39.822222 11.377778-56.888888 0-17.066667 17.066667-28.444444 39.822222-39.822223 17.066667-17.066667 34.133333-28.444444 45.511111-34.133333 11.377778-11.377778 22.755556-17.066667 28.444444-28.444444 11.377778-11.377778 17.066667-28.444444 17.066667-51.2 0-11.377778 0-22.755556-5.688889-34.133334-5.688889-11.377778-11.377778-17.066667-22.755555-28.444444-22.755556-17.066667-45.511111-28.444444-79.644445-28.444445-28.444444 0-51.2 11.377778-68.266667 34.133334-17.066667 17.066667-22.755556 39.822222-28.444444 68.266666 0 17.066667-17.066667 28.444444-34.133333 28.444445-22.755556-5.688889-34.133333-17.066667-34.133334-34.133334s5.688889-34.133333 11.377778-45.511111c11.377778-22.755556 22.755556-39.822222 34.133333-56.888889 17.066667-17.066667 34.133333-28.444444 51.2-34.133333 22.755556-11.377778 45.511111-17.066667 73.955556-17.066667 51.2 0 91.022222 11.377778 125.155556 39.822223 28.444444 28.444444 45.511111 68.266667 45.511111 108.088889 0 17.066667 0 28.444444-5.688889 45.511111l-17.066667 34.133333c-11.377778 11.377778-22.755556 22.755556-39.822222 34.133333-17.066667 11.377778-34.133333 28.444444-56.888889 39.822223l-22.755556 22.755555v56.888889c0 17.066667-17.066667 28.444444-39.822222 28.444444zM472.177778 762.311111c0 17.066667 11.377778 34.133333 34.133333 34.133333s34.133333-17.066667 34.133333-34.133333-17.066667-34.133333-34.133333-34.133333-34.133333 17.066667-34.133333 34.133333" fill="#3296FA" p-id="2596"></path><path d="M512 1024c-284.444444 0-512-227.555556-512-512s227.555556-512 512-512 512 227.555556 512 512-227.555556 512-512 512zM512 56.888889C261.688889 56.888889 56.888889 261.688889 56.888889 512s204.8 455.111111 455.111111 455.111111 455.111111-204.8 455.111111-455.111111-204.8-455.111111-455.111111-455.111111z" fill="#3296FA" p-id="2597"></path></svg>