<svg class="icon" viewBox="0 0 1024 1024" xmlns="http://www.w3.org/2000/svg" width="200" height="200"><defs><style/></defs><path d="M814.317 1024H112.146c-48.664 0-87.771-36.157-87.771-80.165V80.165C24.375 36.157 63.482 0 112.146 0h702.171c48.665 0 87.772 36.157 87.772 80.165v129.657c0 17.311-14.385 32.232-32.72 32.232-17.554 0-32.719-14.14-32.719-32.232V80.165c0-8.656-10.361-15.726-22.333-15.726H112.146c-11.947 0-22.333 7.85-22.333 15.726v864.45c0 8.656 10.362 15.726 22.333 15.726h702.171c11.947 0 22.333-7.85 22.333-15.725v-51.054c0-17.286 14.385-32.207 32.72-32.207 17.554 0 32.719 14.14 32.719 32.207v51.078c0 44.008-39.107 79.36-87.772 79.36z"/><path d="M675.297 365.714H202.404c-17.042 0-31.744-16.944-31.744-36.571s13.922-36.572 31.744-36.572h472.893c17.043 0 31.744 16.945 31.744 36.572s-13.921 36.571-31.744 36.571zm-97.28 219.429H202.161c-16.872 0-31.5-16.945-31.5-36.572S184.483 512 202.16 512h375.856c16.872 0 31.5 16.945 31.5 36.571s-13.824 36.572-31.5 36.572zm0 219.428H202.161c-16.872 0-31.5-16.944-31.5-36.571s13.823-36.571 31.5-36.571h375.856c16.872 0 31.5 16.944 31.5 36.571s-13.824 36.571-31.5 36.571zm112.396 73.143c-5.583 0-11.142-1.56-15.896-3.9-15.896-8.632-20.65-28.234-11.922-43.886l276.31-472.6c8.752-15.678 28.598-20.383 44.47-11.752 15.896 8.63 20.65 28.208 11.922 43.885l-276.31 472.576a33.646 33.646 0 0 1-28.598 15.677z"/></svg>