<?xml version="1.0" standalone="no"?><!DOCTYPE svg PUBLIC "-//W3C//DTD SVG 1.1//EN" "http://www.w3.org/Graphics/SVG/1.1/DTD/svg11.dtd"><svg t="1581166463984" class="icon" viewBox="0 0 1024 1024" version="1.1" xmlns="http://www.w3.org/2000/svg" p-id="2252" xmlns:xlink="http://www.w3.org/1999/xlink" width="200" height="200"><defs><style type="text/css"></style></defs><path d="M814.31747 1024H112.146042C63.481661 1024 24.374613 987.843048 24.374613 943.835429V80.164571C24.374613 36.156952 63.481661 0 112.146042 0h702.171428C862.981851 0 902.088899 36.156952 902.088899 80.164571v129.657905c0 17.310476-14.384762 32.231619-32.719238 32.231619-17.554286 0-32.719238-14.140952-32.719238-32.231619V80.164571c0-8.655238-10.361905-15.725714-22.332953-15.725714H112.146042c-11.946667 0-22.332952 7.850667-22.332952 15.725714v864.451048c0 8.655238 10.361905 15.725714 22.332952 15.725714h702.171428c11.946667 0 22.332952-7.850667 22.332953-15.725714V893.561905c0-17.286095 14.384762-32.207238 32.719238-32.207238 17.554286 0 32.719238 14.140952 32.719238 32.207238v51.078095C902.088899 988.647619 862.981851 1024 814.31747 1024z" p-id="2253"></path><path d="M675.29728 365.714286H202.404328C185.362042 365.714286 170.660328 348.769524 170.660328 329.142857S184.581851 292.571429 202.404328 292.571429h472.892952c17.042286 0 31.744 16.944762 31.744 36.571428s-13.921524 36.571429-31.744 36.571429z m-97.28 219.428571H202.160518C185.288899 585.142857 170.660328 568.198095 170.660328 548.571429S184.484328 512 202.160518 512h375.856762C594.888899 512 609.51747 528.944762 609.51747 548.571429s-13.824 36.571429-31.50019 36.571428z m0 219.428572H202.160518C185.288899 804.571429 170.660328 787.626667 170.660328 768S184.484328 731.428571 202.160518 731.428571h375.856762C594.888899 731.428571 609.51747 748.373333 609.51747 768s-13.824 36.571429-31.50019 36.571429z m112.39619 73.142857c-5.583238 0-11.142095-1.560381-15.89638-3.900953-15.896381-8.630857-20.650667-28.233143-11.922286-43.885714L938.904137 357.327238c8.752762-15.676952 28.598857-20.382476 44.470857-11.751619 15.896381 8.630857 20.650667 28.208762 11.922286 43.885714L718.987947 862.037333a33.645714 33.645714 0 0 1-28.598857 15.676953z" p-id="2254"></path></svg>