<?xml version="1.0" standalone="no"?><!DOCTYPE svg PUBLIC "-//W3C//DTD SVG 1.1//EN" "http://www.w3.org/Graphics/SVG/1.1/DTD/svg11.dtd"><svg t="1582025584557" class="icon" viewBox="0 0 1024 1024" version="1.1" xmlns="http://www.w3.org/2000/svg" p-id="2804" xmlns:xlink="http://www.w3.org/1999/xlink" width="16" height="16"><defs><style type="text/css"></style></defs><path d="M418.816 768v-418.816c0-13.824-9.216-23.04-23.04-23.04s-23.04 9.216-23.04 23.04V768c0 13.824 9.216 23.552 23.04 23.552 13.824-0.512 23.04-9.728 23.04-23.552z m395.776 162.816c0 25.6-20.992 46.592-46.592 46.592h-512c-25.6 0-46.592-20.992-46.592-46.592V349.184c0-13.824-9.216-23.04-23.04-23.04s-23.04 9.216-23.04 23.04v581.632c0 51.2 41.984 93.184 93.184 93.184h512c51.2 0 93.184-41.984 93.184-93.184V349.184c0-13.824-9.216-23.04-23.04-23.04s-23.552 9.216-23.552 23.04l-0.512 581.632z m180.224-744.448h-203.776v-93.184c0-51.2-41.984-93.184-93.184-93.184h-372.224c-51.2 0-93.184 41.984-93.184 93.184v93.184h-203.776c-13.824 0-23.04 9.216-23.04 23.04s9.216 23.552 23.04 23.552h966.144c13.824 0 23.04-9.216 23.04-23.552 0.512-13.824-8.704-23.04-23.04-23.04z m-250.368 0h-465.408v-93.184c0-25.6 20.992-46.592 46.592-46.592h372.224c25.6 0 46.592 20.992 46.592 46.592v93.184zM651.776 768v-418.816c0-13.824-9.216-23.04-23.04-23.04s-23.04 9.216-23.04 23.04V768c0 13.824 9.216 23.552 23.04 23.552 13.312-0.512 23.04-9.728 23.04-23.552z" p-id="2805"></path></svg>