<svg class="icon" viewBox="0 0 1024 1024" xmlns="http://www.w3.org/2000/svg" width="16" height="16"><defs><style/></defs><path d="M418.816 768V349.184c0-13.824-9.216-23.04-23.04-23.04s-23.04 9.216-23.04 23.04V768c0 13.824 9.216 23.552 23.04 23.552 13.824-.512 23.04-9.728 23.04-23.552zm395.776 162.816c0 25.6-20.992 46.592-46.592 46.592H256c-25.6 0-46.592-20.992-46.592-46.592V349.184c0-13.824-9.216-23.04-23.04-23.04s-23.04 9.216-23.04 23.04v581.632c0 51.2 41.984 93.184 93.184 93.184h512c51.2 0 93.184-41.984 93.184-93.184V349.184c0-13.824-9.216-23.04-23.04-23.04s-23.552 9.216-23.552 23.04l-.512 581.632zm180.224-744.448H791.04V93.184C791.04 41.984 749.056 0 697.856 0H325.632c-51.2 0-93.184 41.984-93.184 93.184v93.184H28.672c-13.824 0-23.04 9.216-23.04 23.04s9.216 23.552 23.04 23.552h966.144c13.824 0 23.04-9.216 23.04-23.552.512-13.824-8.704-23.04-23.04-23.04zm-250.368 0H279.04V93.184c0-25.6 20.992-46.592 46.592-46.592h372.224c25.6 0 46.592 20.992 46.592 46.592v93.184zM651.776 768V349.184c0-13.824-9.216-23.04-23.04-23.04s-23.04 9.216-23.04 23.04V768c0 13.824 9.216 23.552 23.04 23.552 13.312-.512 23.04-9.728 23.04-23.552z"/></svg>