<svg class="icon" viewBox="0 0 1024 1024" xmlns="http://www.w3.org/2000/svg" width="16" height="16"><defs><style/></defs><path d="M768 992H256c-89.6 0-160-70.4-160-160V320L377.6 32H768c89.6 0 160 70.4 160 160v640c0 89.6-70.4 160-160 160zM160 345.6V832c0 51.2 44.8 96 96 96h512c51.2 0 96-44.8 96-96V192c0-51.2-44.8-96-96-96H403.2L160 345.6z" fill="#333"/><path d="M300.8 352H147.2v-64h153.6c32 0 51.2-25.6 51.2-51.2V64h64v172.8c0 64-51.2 115.2-115.2 115.2zm134.4 358.4c-6.4 0-19.2 0-25.6-6.4l-128-140.8c-12.8-12.8-12.8-32 0-44.8 12.8-12.8 32-12.8 44.8 0l134.4 134.4c12.8 12.8 12.8 32 0 44.8-6.4 6.4-12.8 12.8-25.6 12.8z" fill="#333"/><path d="M435.2 710.4c-6.4 0-19.2 0-25.6-6.4-12.8-12.8-12.8-32 0-44.8L684.8 384c12.8-12.8 32-12.8 44.8 0s12.8 32 0 44.8L460.8 697.6c-6.4 6.4-12.8 12.8-25.6 12.8z" fill="#333"/></svg>