<?xml version="1.0" standalone="no"?><!DOCTYPE svg PUBLIC "-//W3C//DTD SVG 1.1//EN" "http://www.w3.org/Graphics/SVG/1.1/DTD/svg11.dtd"><svg t="1581170996666" class="icon" viewBox="0 0 1024 1024" version="1.1" xmlns="http://www.w3.org/2000/svg" p-id="26535" xmlns:xlink="http://www.w3.org/1999/xlink" width="200" height="200"><defs><style type="text/css"></style></defs><path d="M919.9 374.1h-831c-9.8 0-18.5-6.4-21.5-15.7s0.5-19.6 8.5-25.2l427.5-300c7.9-5.6 18.6-5.4 26.3 0.4l403.5 300c7.8 5.8 11 15.9 7.9 25.1s-11.5 15.4-21.2 15.4z m-759.7-45H852L516 79.4 160.2 329.1zM173.7 795.6c-12.4 0-22.5-10.1-22.5-22.5V417.6c0-12.4 10.1-22.5 22.5-22.5s22.5 10.1 22.5 22.5v355.5c0 12.4-10.1 22.5-22.5 22.5zM835.1 795.6c-12.4 0-22.5-10.1-22.5-22.5V417.6c0-12.4 10.1-22.5 22.5-22.5s22.5 10.1 22.5 22.5v355.5c0 12.4-10 22.5-22.5 22.5zM339 759.6c-12.4 0-22.5-10.1-22.5-22.5V453.6c0-12.4 10.1-22.5 22.5-22.5s22.5 10.1 22.5 22.5v283.5c0 12.4-10 22.5-22.5 22.5zM504.4 759.6c-12.4 0-22.5-10.1-22.5-22.5V453.6c0-12.4 10.1-22.5 22.5-22.5s22.5 10.1 22.5 22.5v283.5c0 12.4-10.1 22.5-22.5 22.5zM669.8 759.6c-12.4 0-22.5-10.1-22.5-22.5V453.6c0-12.4 10.1-22.5 22.5-22.5s22.5 10.1 22.5 22.5v283.5c0 12.4-10.1 22.5-22.5 22.5z" p-id="26536"></path><path d="M892.9 864.6h-777c-12.4 0-22.5-10.1-22.5-22.5s10.1-22.5 22.5-22.5h777c12.4 0 22.5 10.1 22.5 22.5s-10.1 22.5-22.5 22.5z" p-id="26537"></path><path d="M942.4 989.1h-876c-12.4 0-22.5-10.1-22.5-22.5s10.1-22.5 22.5-22.5h876c12.4 0 22.5 10.1 22.5 22.5s-10.1 22.5-22.5 22.5z" p-id="26538"></path></svg>