<svg class="icon" viewBox="0 0 1024 1024" xmlns="http://www.w3.org/2000/svg" width="200" height="200"><defs><style/></defs><path d="M919.9 374.1h-831c-9.8 0-18.5-6.4-21.5-15.7s.5-19.6 8.5-25.2l427.5-300c7.9-5.6 18.6-5.4 26.3.4l403.5 300c7.8 5.8 11 15.9 7.9 25.1s-11.5 15.4-21.2 15.4zm-759.7-45H852L516 79.4 160.2 329.1zm13.5 466.5c-12.4 0-22.5-10.1-22.5-22.5V417.6c0-12.4 10.1-22.5 22.5-22.5s22.5 10.1 22.5 22.5v355.5c0 12.4-10.1 22.5-22.5 22.5zm661.4 0c-12.4 0-22.5-10.1-22.5-22.5V417.6c0-12.4 10.1-22.5 22.5-22.5s22.5 10.1 22.5 22.5v355.5c0 12.4-10 22.5-22.5 22.5zm-496.1-36c-12.4 0-22.5-10.1-22.5-22.5V453.6c0-12.4 10.1-22.5 22.5-22.5s22.5 10.1 22.5 22.5v283.5c0 12.4-10 22.5-22.5 22.5zm165.4 0c-12.4 0-22.5-10.1-22.5-22.5V453.6c0-12.4 10.1-22.5 22.5-22.5s22.5 10.1 22.5 22.5v283.5c0 12.4-10.1 22.5-22.5 22.5zm165.4 0c-12.4 0-22.5-10.1-22.5-22.5V453.6c0-12.4 10.1-22.5 22.5-22.5s22.5 10.1 22.5 22.5v283.5c0 12.4-10.1 22.5-22.5 22.5zM892.9 864.6h-777c-12.4 0-22.5-10.1-22.5-22.5s10.1-22.5 22.5-22.5h777c12.4 0 22.5 10.1 22.5 22.5s-10.1 22.5-22.5 22.5zM942.4 989.1h-876c-12.4 0-22.5-10.1-22.5-22.5s10.1-22.5 22.5-22.5h876c12.4 0 22.5 10.1 22.5 22.5s-10.1 22.5-22.5 22.5z"/></svg>