<?xml version="1.0" standalone="no"?><!DOCTYPE svg PUBLIC "-//W3C//DTD SVG 1.1//EN" "http://www.w3.org/Graphics/SVG/1.1/DTD/svg11.dtd"><svg t="1584166258647" class="icon" viewBox="0 0 1024 1024" version="1.1" xmlns="http://www.w3.org/2000/svg" p-id="4580" xmlns:xlink="http://www.w3.org/1999/xlink" width="128" height="128"><defs><style type="text/css"></style></defs><path d="M933.717333 512c0-59.904 37.546667-110.648889 90.282667-130.844444a525.084444 525.084444 0 0 0-57.344-138.638223 140.003556 140.003556 0 0 1-185.059556-185.173333A527.416889 527.416889 0 0 0 642.844444 0 140.458667 140.458667 0 0 1 512 90.282667 140.231111 140.231111 0 0 1 381.155556 0a525.084444 525.084444 0 0 0-138.638223 57.344c22.983111 51.712 13.596444 114.062222-28.672 156.387556a140.458667 140.458667 0 0 1-156.387555 28.785777A521.614222 521.614222 0 0 0 0 381.155556 140.458667 140.458667 0 0 1 90.282667 512c0 59.904-37.546667 110.648889-90.282667 130.844444a525.084444 525.084444 0 0 0 57.344 138.638223 140.003556 140.003556 0 0 1 185.059556 185.173333A527.416889 527.416889 0 0 0 381.155556 1024 140.458667 140.458667 0 0 1 512 933.717333c59.904 0 110.648889 37.546667 130.844444 90.282667a525.084444 525.084444 0 0 0 138.638223-57.344 140.174222 140.174222 0 0 1 28.672-156.387556 140.458667 140.458667 0 0 1 156.387555-28.785777A521.614222 521.614222 0 0 0 1024 642.844444 140.231111 140.231111 0 0 1 933.717333 512zM512 652.572444a140.629333 140.629333 0 1 1 0.113778-281.258666A140.629333 140.629333 0 0 1 512 652.572444z" p-id="4581"></path></svg>