<?xml version="1.0" standalone="no"?><!DOCTYPE svg PUBLIC "-//W3C//DTD SVG 1.1//EN" "http://www.w3.org/Graphics/SVG/1.1/DTD/svg11.dtd"><svg t="1583448936011" class="icon" viewBox="0 0 1024 1024" version="1.1" xmlns="http://www.w3.org/2000/svg" p-id="2287" width="16" height="16" xmlns:xlink="http://www.w3.org/1999/xlink"><defs><style type="text/css"></style></defs><path d="M863.445333 512c0-49.92 31.317333-92.16 75.221334-109.056a437.589333 437.589333 0 0 0-47.786667-115.498667 116.693333 116.693333 0 0 1-154.197333-154.282666A439.466667 439.466667 0 0 0 621.056 85.333333 117.034667 117.034667 0 0 1 512 160.554667c-49.92 0-92.16-31.317333-109.056-75.221334-41.130667 10.496-79.914667 26.666667-115.498667 47.786667a116.821333 116.821333 0 0 1-23.893333 130.304 117.034667 117.034667 0 0 1-130.304 24.021333A434.645333 434.645333 0 0 0 85.333333 402.944 117.034667 117.034667 0 0 1 160.554667 512c0 49.92-31.317333 92.16-75.221334 109.056 10.496 41.130667 26.666667 79.914667 47.786667 115.498667a116.693333 116.693333 0 0 1 154.197333 154.282666c35.712 21.162667 74.496 37.333333 115.626667 47.829334A117.034667 117.034667 0 0 1 512 863.445333c49.92 0 92.16 31.317333 109.056 75.221334a437.546667 437.546667 0 0 0 115.498667-47.786667 116.821333 116.821333 0 0 1 23.893333-130.304 117.034667 117.034667 0 0 1 130.304-24.021333c21.248-35.584 37.461333-74.368 47.914667-115.498667A116.864 116.864 0 0 1 863.445333 512zM512 629.12a117.162667 117.162667 0 0 1 0-234.24 117.162667 117.162667 0 0 1 0 234.24z" p-id="2288"></path></svg>