<svg class="icon" viewBox="0 0 1024 1024" xmlns="http://www.w3.org/2000/svg" width="128" height="128"><defs><style/></defs><path d="M933.717 512c0-59.904 37.547-110.649 90.283-130.844a525.084 525.084 0 0 0-57.344-138.639 140.004 140.004 0 0 1-185.06-185.173A527.417 527.417 0 0 0 642.844 0 140.459 140.459 0 0 1 512 90.283 140.231 140.231 0 0 1 381.156 0a525.084 525.084 0 0 0-138.639 57.344c22.983 51.712 13.597 114.062-28.672 156.388a140.459 140.459 0 0 1-156.387 28.785A521.614 521.614 0 0 0 0 381.156 140.459 140.459 0 0 1 90.283 512c0 59.904-37.547 110.649-90.283 130.844a525.084 525.084 0 0 0 57.344 138.639 140.004 140.004 0 0 1 185.06 185.173A527.417 527.417 0 0 0 381.156 1024 140.459 140.459 0 0 1 512 933.717c59.904 0 110.649 37.547 130.844 90.283a525.084 525.084 0 0 0 138.639-57.344 140.174 140.174 0 0 1 28.672-156.388 140.459 140.459 0 0 1 156.387-28.785A521.614 521.614 0 0 0 1024 642.844 140.231 140.231 0 0 1 933.717 512zM512 652.572a140.63 140.63 0 1 1 .114-281.258A140.63 140.63 0 0 1 512 652.572z"/></svg>