<svg class="icon" viewBox="0 0 1024 1024" xmlns="http://www.w3.org/2000/svg" width="32" height="32"><defs><style/></defs><path d="M656.652 745.431L641.55 466.734a71.351 71.351 0 0 0-32.275-55.891l-233.84-152.501a95.135 95.135 0 0 1-30.444-32.108l-65.88-114.162a4.757 4.757 0 0 1 6.683-6.374l392.692 252.107a95.135 95.135 0 0 1 43.619 75.56l22 466.09a4.757 4.757 0 0 1-8.872 2.615l-65.952-114.233a95.135 95.135 0 0 1-12.605-42.406z" fill="#fff"/><path d="M817.097 666.54L801.97 387.845a71.351 71.351 0 0 0-32.274-55.892l-233.841-152.5a95.135 95.135 0 0 1-30.42-32.109l-65.88-114.161a4.757 4.757 0 0 1 6.66-6.374l392.668 252.107a95.135 95.135 0 0 1 43.643 75.56l21.976 466.089a4.757 4.757 0 0 1-8.872 2.592l-65.928-114.209a95.135 95.135 0 0 1-12.605-42.406zM139.12 656.195l-26.043-474.936a4.757 4.757 0 0 1 7.373-4.234l398.257 260.003a95.135 95.135 0 0 1 42.977 74.443l26.043 474.936a4.757 4.757 0 0 1-7.349 4.234L182.121 730.638a95.135 95.135 0 0 1-42.977-74.443z" fill="#fff"/></svg>