<?xml version="1.0" standalone="no"?><!DOCTYPE svg PUBLIC "-//W3C//DTD SVG 1.1//EN" "http://www.w3.org/Graphics/SVG/1.1/DTD/svg11.dtd"><svg t="1582270397101" class="icon" viewBox="0 0 1024 1024" version="1.1" xmlns="http://www.w3.org/2000/svg" p-id="9693" width="32" height="32" xmlns:xlink="http://www.w3.org/1999/xlink"><defs><style type="text/css"></style></defs><path d="M656.65220959 745.43114864l-15.10262272-278.69690833a71.35097474 71.35097474 0 0 0-32.27442412-55.89159755l-233.84092928-152.50081676a95.13463341 95.13463341 0 0 1-30.44308257-32.10793889l-65.88073283-114.16156032a4.75673173 4.75673173 0 0 1 6.68320791-6.37402011L678.48560815 357.80508476a95.13463341 95.13463341 0 0 1 43.61922915 75.56068278l21.99988379 466.08835164a4.75673173 4.75673173 0 0 1-8.87130393 2.61620238l-65.9520847-114.23291097a95.13463341 95.13463341 0 0 1-12.6053389-42.40626195z" fill="#ffffff" p-id="9694"></path><path d="M817.09676939 666.54075328l-15.12640668-278.69690833a71.35097474 71.35097474 0 0 0-32.27442538-55.89159629l-233.84092801-152.5008168a95.13463341 95.13463341 0 0 1-30.41929864-32.10793887l-65.88073406-114.16156032a4.75673173 4.75673173 0 0 1 6.65942395-6.37402012l392.66819942 252.10677808a95.13463341 95.13463341 0 0 1 43.64301312 75.56068277l21.97609984 466.08835164a4.75673173 4.75673173 0 0 1-8.87130392 2.59241845l-65.92830074-114.20912702a95.13463341 95.13463341 0 0 1-12.6053389-42.40626319z" fill="#ffffff" p-id="9695"></path><path d="M139.11980558 656.1948623L113.07669903 181.25898945a4.75673173 4.75673173 0 0 1 7.37293411-4.23349074l398.25735872 260.00295192a95.13463341 95.13463341 0 0 1 42.97707083 74.44285019l26.04310534 474.93587284a4.75673173 4.75673173 0 0 1-7.34915015 4.23349199L182.12065917 730.63771248a95.13463341 95.13463341 0 0 1-42.97707085-74.44285018z" fill="#ffffff" p-id="9696"></path></svg>