<svg class="icon" viewBox="0 0 1024 1024" xmlns="http://www.w3.org/2000/svg" width="128" height="128"><defs><style/></defs><path d="M787.712 281.267h110.003L667.776 32v162.227c-.026 53.479 57.037 95.386 119.936 87.04z"/><path d="M737.024 306.867C667.776 304 642.15 247.142 642.15 193.741V25.267H225.715c-53.453 0-95.565 41.319-95.565 94.746v773.862c0 53.453 42.138 104.167 95.565 104.167H801.51c53.402 0 96.615-50.714 96.615-104.167V306.867H737.024zm37.965 460.775H254.515c-10.163 0-18.432-2.612-18.432-12.8 0-10.164 8.243-12.8 18.432-12.8h520.5c10.137 0 18.457 2.636 18.457 12.8-.026 10.214-8.294 12.8-18.483 12.8zm0-153.6H254.515c-10.163 0-18.432-2.637-18.432-12.8 0-10.138 8.243-12.8 18.432-12.8h520.5c10.137 0 18.457 2.662 18.457 12.8-.026 10.188-8.294 12.8-18.483 12.8zm0-127.975H254.515c-10.163 0-18.432-2.611-18.432-12.8s8.243-12.8 18.432-12.8h520.5c10.137 0 18.457 2.611 18.457 12.8s-8.294 12.8-18.483 12.8z"/></svg>