<svg class="icon" viewBox="0 0 1024 1024" xmlns="http://www.w3.org/2000/svg" width="128" height="128"><defs><style/></defs><path d="M939.904 821.333A439.296 439.296 0 0 0 633.557 503.34a233.259 233.259 0 0 0 111.574-198.87C745.13 175.915 640.555 71.296 512 71.296S278.87 175.915 278.87 304.469a233.259 233.259 0 0 0 111.573 198.87A439.296 439.296 0 0 0 84.096 821.333a103.595 103.595 0 0 0 19.541 89.088c21.035 26.88 52.608 42.24 86.614 42.24h643.456a109.227 109.227 0 0 0 86.613-42.24c20.139-25.6 27.221-58.069 19.584-89.088zM330.069 304.47c0-100.352 81.622-181.973 181.931-181.973s181.93 81.621 181.93 181.973S612.353 486.4 512 486.4s-181.93-81.621-181.93-181.93zm549.974 574.422a59.307 59.307 0 0 1-46.336 22.613H190.25a59.307 59.307 0 0 1-46.336-22.613 52.096 52.096 0 0 1-10.155-45.312C176.725 659.328 332.245 537.6 512 537.6s335.275 121.728 378.197 295.979a52.053 52.053 0 0 1-10.154 45.312z"/></svg>