<?xml version="1.0" standalone="no"?><!DOCTYPE svg PUBLIC "-//W3C//DTD SVG 1.1//EN" "http://www.w3.org/Graphics/SVG/1.1/DTD/svg11.dtd"><svg t="1582027083187" class="icon" viewBox="0 0 1024 1024" version="1.1" xmlns="http://www.w3.org/2000/svg" p-id="14518" xmlns:xlink="http://www.w3.org/1999/xlink" width="16" height="16"><defs><style type="text/css"></style></defs><path d="M542.756807 835.34284l116.188246-306.961546h-46.10026s-94.488609 245.684544-100.063975 265.195794c-7.203832-25.788142-99.472265-265.195795-99.472264-265.195794h-45.876292l116.774899 306.961546h58.549646z m0 0" p-id="14519"></path><path d="M972.429856 144.735534h-103.017105V42.424651c0-31.179998-8.423014-42.424651-45.403791-42.424651H203.211848c-35.819393 0-45.409571 12.998831-45.409571 42.424651v102.310883H51.556417C2.482074 144.735534 0 153.472465 0 184.417296v793.39394c0 33.295415 9.417505 46.189486 51.556417 46.189486h920.873439c40.687452 0 51.555333-8.800148 51.555333-46.189486V184.417296c0-31.725108-2.486409-39.681762-51.555333-39.681762zM198.856387 36.598225l630.199085 0.732954v213.688507H198.856387V36.598225z m782.043806 945.3958H39.016721v-582.956948h941.883472v582.962366-0.005418z m-29.457972-624.697412H39.016721v-174.800026h118.790975v68.522738c-20.033964 0-42.509181-1.115145-42.471974 22.934352 0.030705 20.034325 16.239507 19.328102 36.273471 19.328103h720.766803c20.034686 0 36.274193 0 36.274194-20.035409 0-20.034686-19.202391-22.232826-39.237439-22.232826V182.496587l111.487442 0.387249v174.417834h-29.457972v-0.005057z m0 0" p-id="14520"></path></svg>