<svg class="icon" viewBox="0 0 1024 1024" xmlns="http://www.w3.org/2000/svg" width="16" height="16"><defs><style/></defs><path d="M542.757 835.343L658.945 528.38h-46.1S518.356 774.066 512.78 793.577c-7.204-25.788-99.472-265.196-99.472-265.196h-45.877l116.775 306.962h58.55zm0 0"/><path d="M972.43 144.736H869.413V42.425C869.413 11.245 860.99 0 824.009 0H203.212c-35.82 0-45.41 12.999-45.41 42.425v102.31H51.556C2.482 144.736 0 153.473 0 184.418v793.394c0 33.296 9.418 46.19 51.556 46.19H972.43c40.687 0 51.555-8.8 51.555-46.19V184.417c0-31.725-2.486-39.681-51.555-39.681zM198.856 36.598l630.2.733V251.02h-630.2V36.598zM980.9 981.994H39.017V399.037H980.9V982v-.005zm-29.458-624.697H39.017v-174.8h118.79v68.522c-20.033 0-42.508-1.115-42.471 22.935.03 20.034 16.24 19.328 36.273 19.328h720.767c20.035 0 36.274 0 36.274-20.036 0-20.034-19.202-22.232-39.237-22.232v-68.517l111.487.387v174.418h-29.458v-.005zm0 0"/></svg>