<?xml version="1.0" standalone="no"?><!DOCTYPE svg PUBLIC "-//W3C//DTD SVG 1.1//EN" "http://www.w3.org/Graphics/SVG/1.1/DTD/svg11.dtd"><svg t="1581651663537" class="icon" viewBox="0 0 1024 1024" version="1.1" xmlns="http://www.w3.org/2000/svg" p-id="3804" xmlns:xlink="http://www.w3.org/1999/xlink" width="16" height="16"><defs><style type="text/css"></style></defs><path d="M839.68 235.52h-71.68V163.84c0-12.288-8.192-20.48-20.48-20.48H288.768c-12.288 0-20.48 8.192-20.48 20.48v71.68H184.32c-12.288 0-20.48 8.192-20.48 20.48v573.44c0 12.288 8.192 20.48 20.48 20.48h655.36c12.288 0 20.48-8.192 20.48-20.48v-573.44c0-12.288-8.192-20.48-20.48-20.48zM309.248 184.32h417.792v116.736H309.248V184.32zM204.8 276.48h63.488v45.056c0 12.288 8.192 20.48 20.48 20.48h458.752c12.288 0 20.48-8.192 20.48-20.48v-45.056H819.2v124.928H204.8v-124.928z m0 532.48v-368.64h614.4v366.592H204.8z" fill="#1296db" p-id="3805"></path><path d="M612.352 514.048l-106.496 157.696-94.208-155.648c-6.144-10.24-18.432-12.288-28.672-6.144-10.24 6.144-12.288 18.432-6.144 28.672l110.592 182.272c4.096 6.144 10.24 10.24 16.384 10.24 6.144 0 12.288-4.096 16.384-8.192l124.928-182.272c6.144-10.24 4.096-22.528-6.144-28.672-6.144-10.24-20.48-6.144-26.624 2.048z" fill="#1296db" p-id="3806"></path></svg>