<?xml version="1.0" standalone="no"?><!DOCTYPE svg PUBLIC "-//W3C//DTD SVG 1.1//EN" "http://www.w3.org/Graphics/SVG/1.1/DTD/svg11.dtd"><svg t="1581146179062" class="icon" viewBox="0 0 1024 1024" version="1.1" xmlns="http://www.w3.org/2000/svg" p-id="10070" xmlns:xlink="http://www.w3.org/1999/xlink" width="200" height="200"><defs><style type="text/css"></style></defs><path d="M878.99367148 924.82028896H144.08799805A4.82696631 4.82696631 0 0 1 139.26103174 919.99332266v-530.96633174h744.55960605v530.96633174a4.82696631 4.82696631 0 0 1-4.82696631 4.8269663zM144.08799805 180.26068291h136.3618081v60.33708369a18.1011252 18.1011252 0 0 0 36.20225039 0v-60.33708369H706.42961386v60.33708369a18.1011252 18.1011252 0 0 0 36.20224952 0v-60.33708369h136.3618081C882.61389599 180.26068291 883.82063779 182.67416651 883.82063779 185.0876501v167.73709042H139.26103174V185.0876501C139.26103174 182.67416651 141.67451533 180.26068291 144.08799805 180.26068291z m736.11241523-36.20224952H742.63186338V80.1011252a18.1011252 18.1011252 0 1 0-36.20224952-1e-8v63.9573082H317.85879746V80.1011252a18.1011252 18.1011252 0 1 0-36.20224951-1e-8v63.9573082H142.88125625A41.0292167 41.0292167 0 0 0 103.05878135 185.0876501v736.11241435C103.05878135 942.92141416 121.15990654 961.02253935 144.08799805 961.02253935h736.11241523A41.0292167 41.0292167 0 0 0 920.02288818 918.78658086V185.0876501A41.0292167 41.0292167 0 0 0 878.99367148 144.05843339z" fill="" p-id="10071"></path><path d="M401.12397266 538.66295703h195.49214911L497.66330586 813.80005596l33.7887668 12.06741709 118.26068291-323.40676553H401.12397266z" fill="" p-id="10072"></path></svg>